<svg width="20" height="18" viewBox="0 0 20 18" fill="none" xmlns="http://www.w3.org/2000/svg">
<path fill-rule="evenodd" clip-rule="evenodd" d="M19.12 9.20468C19.12 8.5665 19.0595 7.95286 18.9473 7.36377H10V10.8451H15.1127C14.8925 11.9701 14.2232 12.9233 13.217 13.5615V15.8197H16.2873C18.0836 14.2529 19.12 11.9456 19.12 9.20468Z" fill="#4285F4"/>
<path fill-rule="evenodd" clip-rule="evenodd" d="M9.9998 18C12.5648 18 14.7153 17.1941 16.2871 15.8195L13.2168 13.5613C12.3662 14.1013 11.278 14.4204 9.9998 14.4204C7.52548 14.4204 5.43116 12.8372 4.68412 10.71H1.51025V13.0418C3.07344 15.9831 6.28616 18 9.9998 18Z" fill="#34A853"/>
<path fill-rule="evenodd" clip-rule="evenodd" d="M4.68432 10.7098C4.49432 10.1698 4.38636 9.59301 4.38636 8.99983C4.38636 8.40664 4.49432 7.82983 4.68432 7.28983V4.95801H1.51045C0.867045 6.17301 0.5 7.54755 0.5 8.99983C0.5 10.4521 0.867045 11.8266 1.51045 13.0416L4.68432 10.7098Z" fill="#FBBC05"/>
<path fill-rule="evenodd" clip-rule="evenodd" d="M9.9998 3.57955C11.3946 3.57955 12.6468 4.03364 13.6314 4.92545L16.3562 2.34409C14.7109 0.891818 12.5605 0 9.9998 0C6.28616 0 3.07344 2.01682 1.51025 4.95818L4.68412 7.29C5.43116 5.16273 7.52548 3.57955 9.9998 3.57955Z" fill="#EA4335"/>
</svg>
