<svg width="32" height="32" viewBox="0 0 32 32" fill="none" xmlns="http://www.w3.org/2000/svg">
<circle cx="16" cy="16" r="16" fill="#FEE500"/>
<path d="M16.0461 7.72217C11.0682 7.72217 7.05371 10.9337 7.05371 14.8326C7.05371 17.3633 8.72373 19.5792 11.2288 20.8446L10.3809 24.0112C10.3649 24.0587 10.3625 24.1096 10.3738 24.1584C10.3851 24.2072 10.4098 24.2519 10.4451 24.2874C10.4966 24.3328 10.5628 24.3579 10.6314 24.358C10.6883 24.3535 10.7423 24.331 10.7856 24.2938L14.4339 21.8338C14.9724 21.9081 15.5153 21.9467 16.059 21.9494C21.0305 21.9494 25.0514 18.7378 25.0514 14.8326C25.0514 10.9273 21.0176 7.72217 16.0461 7.72217Z" fill="#392020"/>
<path d="M10.2007 13.7084H9.218C9.0962 13.7119 8.9759 13.6807 8.87115 13.6184C8.82465 13.5893 8.78467 13.5509 8.75372 13.5055C8.72277 13.4602 8.70152 13.409 8.69131 13.3551C8.68818 13.3209 8.68818 13.2865 8.69131 13.2524C8.68825 13.1884 8.70067 13.1246 8.72751 13.0665C8.75434 13.0083 8.7948 12.9575 8.84546 12.9183C8.95744 12.8372 9.0926 12.7944 9.23085 12.7963H12.1919C12.3147 12.792 12.4358 12.8256 12.5388 12.8926C12.5864 12.9205 12.6272 12.9586 12.6583 13.0041C12.6894 13.0497 12.71 13.1015 12.7186 13.156C12.7217 13.188 12.7217 13.2203 12.7186 13.2524C12.7216 13.3173 12.7093 13.3819 12.6825 13.4411C12.6557 13.5003 12.6152 13.5522 12.5645 13.5927C12.4552 13.6737 12.3214 13.7146 12.1855 13.7084H11.2349V17.087C11.2387 17.1589 11.2276 17.2309 11.2022 17.2983C11.1767 17.3658 11.1376 17.4273 11.0871 17.4788C11.0388 17.528 10.9807 17.5666 10.9165 17.5921C10.8523 17.6175 10.7836 17.6292 10.7146 17.6265C10.594 17.6299 10.4759 17.5914 10.3806 17.5173C10.2899 17.445 10.2283 17.3423 10.2072 17.2283C10.2008 17.1814 10.2008 17.1338 10.2072 17.087L10.2007 13.7084Z" fill="#FEE500"/>
<path d="M13.0022 13.047C13.0304 12.9413 13.0968 12.8498 13.1884 12.7901C13.2861 12.7347 13.3974 12.708 13.5096 12.713H13.7537C13.8727 12.7087 13.9906 12.7376 14.0941 12.7965C14.2038 12.8703 14.2818 12.9826 14.3125 13.1112L15.5971 16.7403C15.6304 16.835 15.6583 16.9316 15.6806 17.0294C15.6828 17.0701 15.6828 17.1108 15.6806 17.1514C15.6828 17.214 15.6713 17.2763 15.6469 17.334C15.6224 17.3917 15.5857 17.4434 15.5393 17.4854C15.4943 17.5315 15.4403 17.5679 15.3806 17.5922C15.3209 17.6165 15.2569 17.6283 15.1924 17.6267C15.0934 17.6366 14.9939 17.6128 14.91 17.5592C14.8261 17.5056 14.7627 17.4253 14.73 17.3313L14.4602 16.5412H12.7709L12.5012 17.3313C12.4692 17.4272 12.4051 17.509 12.3196 17.5629C12.2341 17.6168 12.1325 17.6393 12.0323 17.6267C11.9236 17.6296 11.8173 17.5956 11.7304 17.5304C11.6457 17.463 11.5886 17.3671 11.5698 17.2606C11.5664 17.2243 11.5664 17.1877 11.5698 17.1514C11.5588 17.0877 11.5588 17.0225 11.5698 16.9588C11.5698 16.8881 11.6148 16.811 11.6405 16.7403L13.0022 13.047ZM13.6445 13.8885L13.0343 15.8154H14.2482L13.6445 13.8885Z" fill="#FEE500"/>
<path d="M15.8277 13.2525C15.8212 13.1084 15.872 12.9675 15.969 12.8607C16.0183 12.811 16.0776 12.7721 16.1428 12.7467C16.2081 12.7212 16.278 12.7097 16.348 12.7129C16.4683 12.7115 16.5857 12.7499 16.682 12.8222C16.7712 12.8975 16.8304 13.0023 16.849 13.1176C16.8553 13.1623 16.8553 13.2078 16.849 13.2525V16.6311H18.6153C18.7378 16.6295 18.8581 16.6629 18.9622 16.7274C19.009 16.7562 19.0491 16.7946 19.0801 16.84C19.1111 16.8854 19.1322 16.9367 19.142 16.9908C19.142 16.9908 19.142 17.055 19.142 17.0871C19.1451 17.1511 19.1327 17.2148 19.1058 17.273C19.079 17.3311 19.0385 17.382 18.9879 17.4212C18.8759 17.5022 18.7408 17.545 18.6025 17.5432H16.4315C16.2932 17.5521 16.1558 17.5161 16.0397 17.4404C15.9358 17.3628 15.8666 17.2475 15.847 17.1193C15.8423 17.0487 15.8423 16.9778 15.847 16.9073L15.8277 13.2525Z" fill="#FEE500"/>
<path d="M19.2577 13.2526C19.2538 13.1088 19.3043 12.969 19.399 12.8608C19.4952 12.7733 19.6187 12.7216 19.7486 12.7146C19.8785 12.7076 20.0068 12.7456 20.1119 12.8222C20.2031 12.8969 20.2646 13.0016 20.2854 13.1176C20.2885 13.1625 20.2885 13.2077 20.2854 13.2526V14.8262L21.9104 12.9506C21.973 12.8866 22.0395 12.8266 22.1095 12.7708C22.1755 12.7315 22.2511 12.7115 22.3279 12.713C22.4402 12.7124 22.55 12.746 22.6426 12.8093C22.6863 12.8387 22.7236 12.8767 22.7523 12.9208C22.781 12.965 22.8005 13.0144 22.8097 13.0663C22.8122 13.079 22.8122 13.0921 22.8097 13.1048C22.8065 13.1197 22.8065 13.135 22.8097 13.1498C22.8094 13.2174 22.7917 13.2838 22.7583 13.3425C22.7242 13.4047 22.6832 13.4628 22.6362 13.5159L21.57 14.6849L22.8546 16.6761V16.7403C22.9213 16.8323 22.9733 16.9342 23.0088 17.0422V17.0743C23.0162 17.1487 23.0055 17.2239 22.9775 17.2932C22.9495 17.3626 22.9052 17.4241 22.8482 17.4725C22.741 17.5535 22.6099 17.5965 22.4757 17.5946C22.3864 17.5983 22.2978 17.5783 22.2187 17.5368C22.1332 17.4794 22.0627 17.4023 22.0132 17.312L20.8185 15.385L20.2468 15.9824V17.055C20.2507 17.1987 20.2002 17.3386 20.1055 17.4468C20.0547 17.4964 19.9944 17.5352 19.9281 17.5606C19.8618 17.586 19.791 17.5976 19.7201 17.5946C19.6016 17.5971 19.4859 17.5585 19.3925 17.4854C19.3018 17.4131 19.2402 17.3105 19.2191 17.1964C19.2128 17.1495 19.2128 17.1019 19.2191 17.055L19.2577 13.2526Z" fill="#FEE500"/>
</svg>
