<svg width="45" height="45" viewBox="0 0 45 45" fill="none" xmlns="http://www.w3.org/2000/svg">
<path d="M39.375 22.4999H34.9427C33.709 22.4999 33.0921 22.4999 32.5458 22.7432C31.9996 22.9865 31.5868 23.4452 30.7611 24.3626L28.8313 26.5068C28.154 27.2594 27.8153 27.6357 27.3857 27.6265C26.9562 27.6172 26.6343 27.2271 25.9904 26.4467L19.3751 18.4281C18.7749 17.7006 18.4748 17.3368 18.0675 17.3123C17.6602 17.2879 17.3187 17.6131 16.6357 18.2636L13.8168 20.9482C13.0122 21.7145 12.6099 22.0976 12.107 22.2988C11.6041 22.4999 11.0486 22.4999 9.9375 22.4999H5.625" stroke="#F96992" stroke-width="1.5" stroke-linecap="round"/>
<path d="M16.8032 36.3201L17.2772 35.7389H17.2772L16.8032 36.3201ZM22.5 10.3102L21.9509 10.8211C22.0928 10.9736 22.2917 11.0602 22.5 11.0602C22.7083 11.0602 22.9072 10.9736 23.0491 10.8211L22.5 10.3102ZM28.1968 36.3201L28.6708 36.9014L28.1968 36.3201ZM17.2772 35.7389C14.5401 33.5068 11.3243 30.5646 8.79912 27.3283C6.2597 24.0737 4.5 20.6245 4.5 17.3633H3C3 21.1286 5.00851 24.9085 7.61651 28.251C10.2387 31.6117 13.5496 34.6346 16.3293 36.9013L17.2772 35.7389ZM4.5 17.3633C4.5 12.0474 6.96106 8.34062 10.2491 6.97268C13.5168 5.61324 17.8842 6.45041 21.9509 10.8211L23.0491 9.7993C18.6786 5.10223 13.671 3.92445 9.67297 5.58776C5.69534 7.24257 3 11.5962 3 17.3633H4.5ZM28.6708 36.9014C31.4504 34.6347 34.7613 31.6118 37.3835 28.2511C39.9915 24.9086 42 21.1287 42 17.3633H40.5C40.5 20.6245 38.7403 24.0737 36.2009 27.3283C33.6757 30.5647 30.4599 33.5069 27.7228 35.7389L28.6708 36.9014ZM42 17.3633C42 11.596 39.3047 7.24237 35.327 5.58761C31.329 3.92436 26.3214 5.10224 21.9509 9.7993L23.0491 10.8211C27.1158 6.4504 31.4832 5.61316 34.7509 6.97255C38.0389 8.34043 40.5 12.0472 40.5 17.3633H42ZM16.3293 36.9013C18.7657 38.8882 20.2307 40.125 22.5 40.125L22.5 38.625C20.8682 38.625 19.8358 37.8252 17.2772 35.7389L16.3293 36.9013ZM27.7228 35.7389C25.1643 37.8252 24.1318 38.625 22.5 38.625L22.5 40.125C24.7693 40.125 26.2343 38.8882 28.6708 36.9014L27.7228 35.7389Z" fill="#F96992"/>
</svg>
