<svg width="46" height="45" viewBox="0 0 46 45" fill="none" xmlns="http://www.w3.org/2000/svg">
<path d="M41.75 22.5H4.25" stroke="#F96992" stroke-width="1.5" stroke-linecap="round"/>
<path d="M23 3.75V41.25" stroke="#F96992" stroke-width="1.5" stroke-linecap="round"/>
<path d="M24.875 22.5C24.875 26.6421 28.2329 30 32.375 30" stroke="#F96992" stroke-width="1.5" stroke-linecap="round"/>
<path d="M21.125 22.5C21.125 26.6421 17.7671 30 13.625 30" stroke="#F96992" stroke-width="1.5" stroke-linecap="round"/>
<path d="M23 18.8156C23 16.0221 24.9012 13.5871 27.6114 12.9095C30.6183 12.1578 33.3421 14.8815 32.5903 17.8885C31.9128 20.5986 29.4778 22.4999 26.6842 22.4999H23V18.8156Z" stroke="#F96992" stroke-width="1.5"/>
<path d="M22.9999 18.8156C22.9999 16.0221 21.0986 13.5871 18.3885 12.9095C15.3815 12.1578 12.6578 14.8815 13.4095 17.8885C14.0871 20.5986 16.5221 22.4999 19.3156 22.4999H22.9999V18.8156Z" stroke="#F96992" stroke-width="1.5"/>
<path d="M4.25 22.5C4.25 13.6612 4.25 9.24175 6.99587 6.49587C9.74175 3.75 14.1612 3.75 23 3.75C31.8388 3.75 36.2583 3.75 39.0041 6.49587C41.75 9.24175 41.75 13.6612 41.75 22.5C41.75 31.3388 41.75 35.7583 39.0041 38.5041C36.2583 41.25 31.8388 41.25 23 41.25C14.1612 41.25 9.74175 41.25 6.99587 38.5041C4.25 35.7583 4.25 31.3388 4.25 22.5Z" stroke="#F96992" stroke-width="1.5"/>
</svg>
