<svg width="45" height="45" viewBox="0 0 45 45" fill="none" xmlns="http://www.w3.org/2000/svg">
<path d="M6.02476 17.0083C2.99175 13.9752 2.99175 9.05777 6.02476 6.02476C9.05776 2.99175 13.9752 2.99175 17.0083 6.02476L38.9752 27.9917C42.0083 31.0248 42.0083 35.9422 38.9752 38.9752C35.9422 42.0083 31.0248 42.0083 27.9917 38.9752L6.02476 17.0083Z" stroke="#F96992" stroke-width="1.5"/>
<path d="M22.5 33.4835L17.0083 38.9752C13.9752 42.0083 9.05777 42.0083 6.02476 38.9752C2.99175 35.9422 2.99175 31.0248 6.02476 27.9917L11.5165 22.5L22.5 33.4835Z" stroke="#F96992" stroke-width="1.5"/>
<path d="M22.5 11.5165L27.9917 6.02476C31.0248 2.99175 35.9422 2.99175 38.9752 6.02476C42.0083 9.05777 42.0083 13.9752 38.9752 17.0083L33.4835 22.5L22.5 11.5165Z" stroke="#F96992" stroke-width="1.5"/>
<path d="M29.7026 24.1339C30.2793 24.7106 30.2793 25.6455 29.7026 26.2222C29.126 26.7988 28.191 26.7988 27.6144 26.2222C27.0377 25.6455 27.0377 24.7106 27.6144 24.1339C28.191 23.5573 29.126 23.5573 29.7026 24.1339Z" fill="#F96992"/>
<path d="M22.7417 17.173C22.1651 16.5964 21.2301 16.5964 20.6535 17.173C20.0768 17.7497 20.0768 18.6846 20.6535 19.2613C21.2301 19.838 22.1651 19.838 22.7417 19.2613C23.3184 18.6846 23.3184 17.7497 22.7417 17.173Z" fill="#F96992"/>
<path d="M31.4428 29.3546C32.0195 29.9312 32.0195 30.8662 31.4428 31.4428C30.8662 32.0195 29.9312 32.0195 29.3546 31.4428C28.7779 30.8662 28.7779 29.9312 29.3546 29.3546C29.9312 28.7779 30.8662 28.7779 31.4428 29.3546Z" fill="#F96992"/>
<path d="M17.5211 15.4328C16.9444 14.8562 16.0095 14.8562 15.4328 15.4328C14.8562 16.0095 14.8562 16.9444 15.4328 17.5211C16.0095 18.0977 16.9444 18.0977 17.5211 17.5211C18.0977 16.9444 18.0977 16.0095 17.5211 15.4328Z" fill="#F96992"/>
<path d="M24.482 22.3937C25.0586 22.9704 25.0586 23.9053 24.482 24.482C23.9053 25.0586 22.9704 25.0586 22.3937 24.482C21.817 23.9053 21.817 22.9704 22.3937 22.3937C22.9704 21.817 23.9053 21.817 24.482 22.3937Z" fill="#F96992"/>
<path d="M26.2222 27.6143C26.7988 28.191 26.7988 29.126 26.2222 29.7026C25.6455 30.2793 24.7106 30.2793 24.1339 29.7026C23.5573 29.126 23.5573 28.191 24.1339 27.6143C24.7106 27.0377 25.6455 27.0377 26.2222 27.6143Z" fill="#F96992"/>
<path d="M19.2613 20.6535C18.6846 20.0768 17.7497 20.0768 17.173 20.6535C16.5964 21.2301 16.5964 22.1651 17.173 22.7417C17.7497 23.3184 18.6846 23.3184 19.2613 22.7417C19.838 22.1651 19.838 21.2301 19.2613 20.6535Z" fill="#F96992"/>
</svg>
