<svg width="25" height="24" viewBox="0 0 25 24" fill="none" xmlns="http://www.w3.org/2000/svg">
<path d="M21.003 6H4.00293" stroke="black" stroke-width="1.5" stroke-linecap="round"/>
<path d="M19.3366 8.5L18.8766 15.3991C18.6997 18.054 18.6112 19.3815 17.7461 20.1907C16.8811 21 15.5507 21 12.8899 21H12.1166C9.45577 21 8.12537 21 7.26036 20.1907C6.39535 19.3815 6.30686 18.054 6.12986 15.3991L5.66992 8.5" stroke="black" stroke-width="1.5" stroke-linecap="round"/>
<path d="M10.0029 11L10.5029 16" stroke="black" stroke-width="1.5" stroke-linecap="round"/>
<path d="M15.0029 11L14.5029 16" stroke="black" stroke-width="1.5" stroke-linecap="round"/>
<path d="M7.00293 6C7.05881 6 7.08675 6 7.11208 5.99936C7.93552 5.97849 8.66195 5.45491 8.94215 4.68032C8.95077 4.65649 8.9596 4.62999 8.97727 4.57697L9.07436 4.28571C9.15724 4.03708 9.19868 3.91276 9.25364 3.8072C9.47294 3.38607 9.87867 3.09364 10.3475 3.01877C10.4651 3 10.5961 3 10.8582 3H14.1477C14.4098 3 14.5408 3 14.6583 3.01877C15.1272 3.09364 15.5329 3.38607 15.7522 3.8072C15.8072 3.91276 15.8486 4.03708 15.9315 4.28571L16.0286 4.57697C16.0462 4.62992 16.0551 4.65651 16.0637 4.68032C16.3439 5.45491 17.0703 5.97849 17.8938 5.99936C17.9191 6 17.9471 6 18.0029 6" stroke="black" stroke-width="1.5"/>
</svg>
