<svg width="45" height="45" viewBox="0 0 45 45" fill="none" xmlns="http://www.w3.org/2000/svg">
<path d="M37.5 24.5832C37.5 37.9166 26.1667 41.2499 20.5 41.2499C15.5417 41.2499 5.625 37.9166 5.625 24.5832C5.625 19.3678 8.36525 15.865 10.9874 13.8646C12.447 12.7512 14.307 13.8598 14.4941 15.6861L14.655 17.257C14.851 19.1701 16.5925 20.7386 18.205 19.6906C21.3633 17.6381 22.5 12.7034 22.5 9.99989V9.39308C22.5 6.71237 25.207 4.98709 27.3792 6.55802C32.185 10.0335 37.5 16.0954 37.5 24.5832Z" stroke="#F96992" stroke-width="1.5"/>
<path d="M15 34.5835C15 39.9168 19.6667 41.2502 22 41.2502C24.0417 41.2502 28.125 39.9168 28.125 34.5835C28.125 32.5191 27.0201 31.1255 25.9508 30.3213C25.2046 29.7601 24.1552 30.2641 23.8986 31.1618C23.5641 32.3321 22.3552 33.0675 21.7395 32.0175C21.1765 31.0572 21.1765 29.617 21.1765 28.7502C21.1765 27.5567 19.976 26.784 19.0105 27.4855C17.0747 28.8921 15 31.2779 15 34.5835Z" stroke="#F96992" stroke-width="1.5"/>
</svg>
