<svg width="32" height="32" viewBox="0 0 32 32" fill="none" xmlns="http://www.w3.org/2000/svg">
<path opacity="0.4" d="M26.4798 10.7866C26.4798 10.9866 26.4798 11.1866 26.4665 11.3733C24.4265 10.6133 22.0265 11.08 20.4265 12.52C19.3465 11.5466 17.9465 11 16.4532 11C13.1732 11 10.5065 13.68 10.5065 16.9866C10.5065 20.76 12.3998 23.52 14.2132 25.3066C14.0665 25.2933 13.9465 25.2666 13.8398 25.2266C10.3865 24.04 2.6665 19.1333 2.6665 10.7866C2.6665 7.10662 5.62649 4.1333 9.27983 4.1333C11.4532 4.1333 13.3732 5.17329 14.5732 6.78662C15.7865 5.17329 17.7065 4.1333 19.8665 4.1333C23.5198 4.1333 26.4798 7.10662 26.4798 10.7866Z" fill="#F96992"/>
<path d="M24 12.7866C22.5734 12.7866 21.28 13.48 20.48 14.5466C19.68 13.48 18.4 12.7866 16.96 12.7866C14.5334 12.7866 12.5601 14.76 12.5601 17.2133C12.5601 18.16 12.7067 19.0266 12.9734 19.8266C14.2267 23.7866 18.08 26.1466 19.9867 26.8C20.2534 26.8933 20.6934 26.8933 20.9734 26.8C22.8801 26.1466 26.7334 23.7866 27.9867 19.8266C28.2534 19.0133 28.4 18.1466 28.4 17.2133C28.4 14.76 26.4267 12.7866 24 12.7866Z" fill="#F96992"/>
</svg>
