<svg width="45" height="45" viewBox="0 0 45 45" fill="none" xmlns="http://www.w3.org/2000/svg">
<path d="M22.4998 33.7496C30.266 33.8143 36.7379 26.3997 36.6753 18.3831C36.6126 10.3664 30.266 3.81517 22.4998 3.75048C14.7335 3.68579 8.48852 10.1321 8.55119 18.1488C8.61386 26.1654 14.7335 33.6849 22.4998 33.7496Z" stroke="#F96992" stroke-width="1.5" stroke-linecap="round"/>
<path d="M29.0625 16.875C29.0376 13.7933 26.5192 11.2749 23.4375 11.25" stroke="#F96992" stroke-width="1.5" stroke-linecap="round"/>
<path d="M22.5 38.1568C23.1022 38.1568 23.4033 38.1568 23.6125 38.1156C24.8373 37.8748 25.5828 36.667 25.2208 35.5096C25.159 35.312 25.0162 35.0556 24.7305 34.5427M22.5 38.1568C21.8978 38.1568 21.5967 38.1568 21.3875 38.1156C20.1626 37.8748 19.4172 36.667 19.7792 35.5096C19.841 35.312 19.9838 35.0556 20.2695 34.5427M22.5 38.1568V42.1876" stroke="#F96992" stroke-width="1.5" stroke-linecap="round"/>
</svg>
