<svg width="45" height="45" viewBox="0 0 45 45" fill="none" xmlns="http://www.w3.org/2000/svg">
<path d="M22.5 36.5625C22.5 39.1513 20.4013 41.25 17.8125 41.25C15.2237 41.25 13.125 39.1513 13.125 36.5625C13.125 33.9737 15.2237 31.875 17.8125 31.875C20.4013 31.875 22.5 33.9737 22.5 36.5625Z" stroke="#F96992" stroke-width="1.5"/>
<path d="M41.25 32.8125C41.25 35.4013 39.1513 37.5 36.5625 37.5C33.9737 37.5 31.875 35.4013 31.875 32.8125C31.875 30.2237 33.9737 28.125 36.5625 28.125C39.1513 28.125 41.25 30.2237 41.25 32.8125Z" stroke="#F96992" stroke-width="1.5"/>
<path d="M41.25 15L22.5 22.5" stroke="#F96992" stroke-width="1.5" stroke-linecap="round"/>
<path d="M27.1043 9.67057L27.3939 10.3624L27.1043 9.67057ZM30.8543 8.10103L30.5647 7.40918L30.8543 8.10103ZM39.5776 6.26287L39.1621 6.88724V6.88724L39.5776 6.26287ZM23.25 35.625V16.589H21.75V35.625H23.25ZM42 32.1634V15.0195H40.5V32.1634H42ZM27.3939 10.3624L31.1439 8.79287L30.5647 7.40918L26.8147 8.97873L27.3939 10.3624ZM42 15.0195C42 12.4963 42.002 10.5188 41.7829 9.03788C41.5616 7.54236 41.0906 6.36887 39.9932 5.6385L39.1621 6.88724C39.737 7.26985 40.1022 7.92679 40.299 9.2574C40.498 10.6026 40.5 12.4469 40.5 15.0195H42ZM31.1439 8.79287C33.517 7.7996 35.2191 7.08935 36.5368 6.75357C37.8402 6.42142 38.5872 6.50463 39.1621 6.88724L39.9932 5.6385C38.8957 4.90812 37.6313 4.9267 36.1664 5.30002C34.7156 5.6697 32.8922 6.43502 30.5647 7.40918L31.1439 8.79287ZM23.25 16.589C23.25 15.3629 23.251 14.503 23.3241 13.8299C23.3953 13.1751 23.5289 12.7672 23.7525 12.4313L22.5038 11.6002C22.0992 12.2081 21.9188 12.8771 21.8329 13.668C21.749 14.4407 21.75 15.3955 21.75 16.589H23.25ZM26.8147 8.97873C25.7138 9.43954 24.8326 9.80725 24.1522 10.183C23.4558 10.5676 22.9083 10.9923 22.5038 11.6002L23.7525 12.4313C23.9761 12.0953 24.3007 11.8145 24.8774 11.4961C25.47 11.1687 26.2628 10.8358 27.3939 10.3624L26.8147 8.97873Z" fill="#F96992"/>
<path d="M13.125 20.625V12.1875V3.75" stroke="#F96992" stroke-width="1.5" stroke-linecap="round"/>
<circle cx="8.4375" cy="19.6875" r="4.6875" stroke="#F96992" stroke-width="1.5"/>
<path d="M18.75 9.375C16.42 9.375 13.125 7.63325 13.125 3.75" stroke="#F96992" stroke-width="1.5" stroke-linecap="round"/>
</svg>
