<svg width="45" height="45" viewBox="0 0 45 45" fill="none" xmlns="http://www.w3.org/2000/svg">
<path d="M15.2997 41.25C7.46223 41.25 5.88723 36.5062 8.43723 30.7312L16.406 12.6375H15.8435C14.6247 12.6375 13.4997 12.15 12.6935 11.3438C11.8685 10.5375 11.381 9.4125 11.381 8.19375C11.381 5.75625 13.3685 3.75 15.8247 3.75H29.156C30.3935 3.75 31.4997 4.25625 32.306 5.0625C33.356 6.1125 33.881 7.65 33.4872 9.28125C32.981 11.3062 31.031 12.6375 28.9497 12.6375H28.6497L36.5622 30.75C39.0935 36.525 37.4435 41.25 29.681 41.25H15.2997Z" stroke="#F96992" stroke-width="1.5" stroke-linecap="round" stroke-linejoin="round"/>
<path d="M11.1377 24.5998C11.1377 24.5998 16.8752 24.3748 22.5002 26.2498C28.1252 28.1248 33.4314 24.5811 33.4314 24.5811" stroke="#F96992" stroke-width="1.5" stroke-linecap="round" stroke-linejoin="round"/>
</svg>
