<svg width="45" height="46" viewBox="0 0 45 46" fill="none" xmlns="http://www.w3.org/2000/svg">
<path d="M31.875 13.625C31.875 7.4118 28.1484 4.25 22.5 4.25C16.8516 4.25 13.125 7.4118 13.125 13.625" stroke="#F96992" stroke-width="1.5" stroke-linecap="round"/>
<path d="M22.5 23V27.6875" stroke="#F96992" stroke-width="1.5" stroke-linecap="round"/>
<path d="M17.3729 39.1538L17.8279 38.5576L17.3729 39.1538ZM22.5 17.2449L21.9681 17.7737C22.1089 17.9153 22.3003 17.9949 22.5 17.9949C22.6997 17.9949 22.8911 17.9153 23.0319 17.7737L22.5 17.2449ZM27.6271 39.1538L28.0821 39.75L27.6271 39.1538ZM17.8279 38.5576C15.3003 36.6285 12.4473 34.6823 10.1897 32.2211C7.95793 29.7881 6.375 26.9162 6.375 23.186H4.875C4.875 27.4005 6.68346 30.6178 9.08434 33.2351C11.4595 35.8244 14.4804 37.8897 16.9179 39.75L17.8279 38.5576ZM6.375 23.186C6.375 19.5078 8.52269 16.3835 11.5185 15.0577C14.473 13.7502 18.3656 14.15 21.9681 17.7737L23.0319 16.7161C19.0409 12.7018 14.496 12.0997 10.9114 13.686C7.36807 15.2541 4.875 18.9193 4.875 23.186H6.375ZM16.9179 39.75C17.7872 40.4134 18.6873 41.0947 19.5914 41.6061C20.4957 42.1177 21.4719 42.5 22.5 42.5V41C21.8406 41 21.1293 40.7527 20.33 40.3006C19.5304 39.8482 18.7108 39.2313 17.8279 38.5576L16.9179 39.75ZM28.0821 39.75C30.5196 37.8897 33.5405 35.8244 35.9157 33.2351C38.3165 30.6178 40.125 27.4005 40.125 23.186H38.625C38.625 26.9162 37.0421 29.7881 34.8103 32.2211C32.5527 34.6823 29.6997 36.6285 27.1721 38.5576L28.0821 39.75ZM40.125 23.186C40.125 18.9193 37.6319 15.2541 34.0886 13.686C30.504 12.0997 25.9591 12.7018 21.9681 16.7161L23.0319 17.7737C26.6344 14.15 30.527 13.7502 33.4815 15.0577C36.4773 16.3835 38.625 19.5078 38.625 23.186H40.125ZM27.1721 38.5576C26.2892 39.2313 25.4696 39.8482 24.67 40.3006C23.8707 40.7527 23.1594 41 22.5 41V42.5C23.5281 42.5 24.5043 42.1177 25.4086 41.6061C26.3127 41.0947 27.2128 40.4134 28.0821 39.75L27.1721 38.5576Z" fill="#F96992"/>
</svg>
