<svg width="45" height="45" viewBox="0 0 45 45" fill="none" xmlns="http://www.w3.org/2000/svg">
<circle cx="22.5" cy="22.5" r="5.625" stroke="#F96992" stroke-width="1.5"/>
<path d="M27.1875 13.125L30 9.375" stroke="#F96992" stroke-width="1.5" stroke-linecap="round"/>
<path d="M35.625 13.125L37.5 11.25" stroke="#F96992" stroke-width="1.5" stroke-linecap="round"/>
<path d="M22.5 9.375L20.625 7.5" stroke="#F96992" stroke-width="1.5" stroke-linecap="round"/>
<path d="M19.6876 13.125L17.1263 13.8113" stroke="#F96992" stroke-width="1.5" stroke-linecap="round"/>
<path d="M13.125 9.375L11.25 7.5" stroke="#F96992" stroke-width="1.5" stroke-linecap="round"/>
<path d="M12.7362 17.1448L11.6389 14.7308" stroke="#F96992" stroke-width="1.5" stroke-linecap="round"/>
<path d="M23.4375 41.25L23.4718 41.9992C23.7485 41.9865 23.9957 41.8224 24.1147 41.5722C24.2338 41.3221 24.2052 41.0268 24.0405 40.804L23.4375 41.25ZM24.2699 36.8018L24.7159 37.4048L24.2699 36.8018ZM36.5225 27.7405L36.0765 27.1375L36.5225 27.7405ZM27.4108 35.3535L28.0138 34.9075V34.9075L27.4108 35.3535ZM28.7239 30.0098L29.1698 30.6129L28.7239 30.0098ZM34.2178 30.3195L34.8208 29.8735L34.2178 30.3195ZM40.5498 27.594L40.0632 28.1648C40.2578 28.3306 40.5234 28.3859 40.768 28.3115C41.0125 28.2372 41.2024 28.0433 41.2717 27.7973L40.5498 27.594ZM34.8449 31.1674L34.2419 31.6134C34.3717 31.7889 34.5715 31.8992 34.7892 31.9154C35.0069 31.9316 35.2209 31.8521 35.3752 31.6978L34.8449 31.1674ZM35.0351 30.9773L35.5654 31.5076C35.7368 31.3362 35.8148 31.0925 35.7748 30.8534L35.0351 30.9773ZM27.4108 36.1706L27.1855 36.886C27.4522 36.97 27.7434 36.8987 27.9411 36.701L27.4108 36.1706ZM27.7582 35.8232L28.2885 36.3536C28.5511 36.091 28.582 35.6758 28.3612 35.3773L27.7582 35.8232ZM22.5 40.5C12.5589 40.5 4.5 32.4411 4.5 22.5H3C3 33.2696 11.7304 42 22.5 42V40.5ZM4.5 22.5C4.5 12.5589 12.5589 4.5 22.5 4.5V3C11.7304 3 3 11.7304 3 22.5H4.5ZM22.5 4.5C32.4411 4.5 40.5 12.5589 40.5 22.5H42C42 11.7304 33.2696 3 22.5 3V4.5ZM24.0405 40.804C23.3764 39.9061 23.527 38.284 24.7159 37.4048L23.824 36.1988C22.0053 37.5437 21.6514 40.0962 22.8345 41.696L24.0405 40.804ZM28.0138 34.9075C27.1795 33.7795 27.5135 31.8378 29.1698 30.6129L28.2779 29.4068C26.1749 30.9621 25.333 33.8053 26.8078 35.7994L28.0138 34.9075ZM29.1698 30.6129C30.8262 29.3879 32.7805 29.6373 33.6148 30.7654L34.8208 29.8735C33.3461 27.8794 30.381 27.8515 28.2779 29.4068L29.1698 30.6129ZM36.9685 28.3435C38.0842 27.5184 39.3762 27.5791 40.0632 28.1648L41.0363 27.0232C39.6965 25.8812 37.6137 26.0007 36.0765 27.1375L36.9685 28.3435ZM40.5 22.5C40.5 24.1962 40.2656 25.8364 39.8278 27.3906L41.2717 27.7973C41.7463 26.112 42 24.335 42 22.5H40.5ZM23.4032 40.5008C23.1345 40.5131 22.8382 40.5 22.5 40.5V42C22.7469 42 23.162 42.0134 23.4718 41.9992L23.4032 40.5008ZM33.6148 30.7654L34.2419 31.6134L35.4479 30.7215L34.8208 29.8735L33.6148 30.7654ZM35.7748 30.8534C35.6416 30.0575 36.0299 29.0377 36.9685 28.3435L36.0765 27.1375C34.7593 28.1116 34.0546 29.6622 34.2954 31.1011L35.7748 30.8534ZM35.3752 31.6978L35.5654 31.5076L34.5048 30.4469L34.3146 30.6371L35.3752 31.6978ZM24.7159 37.4048C25.5347 36.7993 26.4782 36.6633 27.1855 36.886L27.6361 35.4553C26.4204 35.0724 24.9837 35.3411 23.824 36.1988L24.7159 37.4048ZM26.8078 35.7994L27.1552 36.2692L28.3612 35.3773L28.0138 34.9075L26.8078 35.7994ZM27.9411 36.701L28.2885 36.3536L27.2279 35.2929L26.8805 35.6403L27.9411 36.701Z" fill="#F96992"/>
<path d="M3.75 24.375C3.75 24.375 7.8766 28.125 11.25 28.125C13.5225 28.125 16.1368 26.4232 17.6011 25.3125" stroke="#F96992" stroke-width="1.5"/>
<path d="M30 29.0626C29.0625 28.1251 27.1337 27.4481 26.25 26.6694" stroke="#F96992" stroke-width="1.5"/>
<path d="M31.2183 16.8313L31.3427 19.48" stroke="#F96992" stroke-width="1.5" stroke-linecap="round"/>
<path d="M38.7704 18.9094L35.624 21.6804" stroke="#F96992" stroke-width="1.5" stroke-linecap="round"/>
<path d="M10.6209 23.7023L12.187 21.5626" stroke="#F96992" stroke-width="1.5" stroke-linecap="round"/>
<path d="M6.90525 19.4058L6.75775 16.7583" stroke="#F96992" stroke-width="1.5" stroke-linecap="round"/>
</svg>
