<svg width="45" height="45" viewBox="0 0 45 45" fill="none" xmlns="http://www.w3.org/2000/svg">
<path d="M19.0308 16.5041L18.589 17.1102L19.0308 16.5041ZM22.5 5.82404L21.9925 6.37621C22.2794 6.63998 22.7206 6.63998 23.0075 6.37621L22.5 5.82404ZM25.9693 16.5041L26.411 17.1102V17.1102L25.9693 16.5041ZM22.5 18.1425L22.5 18.8925L22.5 18.1425ZM19.4726 15.898C18.1594 14.9408 16.7342 13.7597 15.6447 12.4967C14.5371 11.2128 13.875 9.95748 13.875 8.84018H12.375C12.375 10.5074 13.331 12.1111 14.5089 13.4765C15.7048 14.8628 17.2325 16.1213 18.589 17.1102L19.4726 15.898ZM13.875 8.84018C13.875 6.61028 14.9966 5.20219 16.4697 4.70643C17.9695 4.20173 20.0355 4.57744 21.9925 6.37621L23.0075 5.27187C20.7459 3.19297 18.1244 2.56691 15.9913 3.28477C13.8316 4.01158 12.375 6.05039 12.375 8.84018H13.875ZM26.411 17.1102C27.7676 16.1213 29.2952 14.8628 30.4911 13.4765C31.669 12.1111 32.625 10.5074 32.625 8.84016H31.125C31.125 9.95749 30.4629 11.2128 29.3553 12.4967C28.2658 13.7597 26.8406 14.9408 25.5275 15.8981L26.411 17.1102ZM32.625 8.84016C32.625 6.05037 31.1684 4.01157 29.0087 3.28477C26.8756 2.56691 24.2541 3.19297 21.9925 5.27187L23.0075 6.37621C24.9645 4.57744 27.0306 4.20173 28.5303 4.70643C30.0034 5.20218 31.125 6.61027 31.125 8.84016H32.625ZM18.589 17.1102C20.0433 18.1703 20.9917 18.8925 22.5 18.8925L22.5 17.3925C21.5649 17.3925 21.0149 17.0224 19.4726 15.898L18.589 17.1102ZM25.5275 15.8981C23.9851 17.0224 23.4351 17.3925 22.5 17.3925L22.5 18.8925C24.0083 18.8925 24.9567 18.1703 26.411 17.1102L25.5275 15.8981Z" fill="#F96992"/>
<path d="M9.375 38.2282H13.6124C15.5077 38.2282 17.4235 38.4257 19.2681 38.8057C22.5311 39.4779 25.9666 39.5594 29.263 39.0258C30.8884 38.7627 32.4863 38.3604 33.9328 37.6622C35.2385 37.032 36.838 36.1436 37.9124 35.1486C38.9852 34.155 40.1025 32.5288 40.8955 31.2576C41.5755 30.1676 41.2466 28.8304 40.171 28.0182C38.9762 27.1161 37.2032 27.1162 36.0087 28.0186L32.6202 30.5783C31.3069 31.5703 29.8724 32.4835 28.1636 32.7561C27.9581 32.7889 27.7428 32.8187 27.5182 32.8447M27.5182 32.8447C27.4505 32.8526 27.3821 32.8601 27.3128 32.8672M27.5182 32.8447C27.7915 32.7862 28.063 32.6176 28.3177 32.3953C29.5237 31.3427 29.5999 29.5687 28.5535 28.3934C28.3107 28.1206 28.0266 27.8932 27.7107 27.7048C22.4657 24.5765 14.3052 26.9591 9.375 30.4555M27.5182 32.8447C27.4497 32.8594 27.3812 32.8672 27.3128 32.8672M27.3128 32.8672C26.3315 32.9679 25.1834 32.994 23.9096 32.8737" stroke="#F96992" stroke-width="1.5" stroke-linecap="round"/>
<rect x="3.75" y="26.25" width="5.625" height="15" rx="1.5" stroke="#F96992" stroke-width="1.5"/>
</svg>
